# xmcd
#
# Track frame offsets:
#	150
#	13771
#	25173
#	37669
#	50234
#	65771
#	78405
#	90387
#	103593
#	114895
#	127149
#	141822
#	161664
#	174371
#	187420
#	200043
#	211556
#	225323
#	237907
#	249278
#	261532
#
# Disc length: 3654 seconds
#
# Revision: 1
# Processed by: cddbd v1.5.1PL0 Copyright (c) Steve Scherf et al.
# Submitted via: CDex 1.50Beta5
#
DISCID=200e4415
DTITLE=Ｔａｋｅｕｃｈｉ　Ｍａｒｉｙａ - Ｌｏｎｇｔｉｍｅ　Ｆａｖｏｒｉｔｅｓ
DYEAR=1900
DGENRE=Pop
TTITLE0=悲しき片思い
TTITLE1=なみだの16才
TTITLE2=ボーイ・ハント
TTITLE3=そよ風にのって
TTITLE4=夢見る想い
TTITLE5=悲しきあしおと
TTITLE6=ウォーク・ライト・バック
TTITLE7=恋する瞳
TTITLE8=ジョニー・エンジェル
TTITLE9=砂に消えた涙
TTITLE10=いそしぎ
TTITLE11=風のささやき
TTITLE12=恋のひとこと
TTITLE13=この世の果てまで
TTITLE14=Where The Boys Are
TTITLE15=Footsteps
TTITLE16=カラオケ17
TTITLE17=カラオケ18
TTITLE18=カラオケ19
TTITLE19=カラオケ
TTITLE20=カラオケ
EXTD=
EXTT0=
EXTT1=
EXTT2=
EXTT3=
EXTT4=
EXTT5=
EXTT6=
EXTT7=
EXTT8=
EXTT9=
EXTT10=
EXTT11=
EXTT12=
EXTT13=
EXTT14=
EXTT15=
EXTT16=
EXTT17=
EXTT18=
EXTT19=
EXTT20=
PLAYORDER=
